<?xml version="1.0" encoding="UTF-8"?>
<svg xmlns="http://www.w3.org/2000/svg" xmlns:xlink="http://www.w3.org/1999/xlink" width="21px" height="21px" viewBox="0 0 21 21" version="1.1">
<g id="surface1">
<path style=" stroke:none;fill-rule:nonzero;fill:rgb(0%,0%,0%);fill-opacity:1;" d="M 20.648438 9.558594 L 17.464844 6.375 L 17.464844 2.699219 C 17.464844 2.035156 16.925781 1.496094 16.261719 1.496094 C 15.597656 1.496094 15.058594 2.035156 15.058594 2.699219 L 15.058594 3.96875 L 12.6875 1.601562 C 11.515625 0.429688 9.480469 0.429688 8.308594 1.601562 L 0.351562 9.558594 C -0.117188 10.03125 -0.117188 10.792969 0.351562 11.261719 C 0.824219 11.734375 1.585938 11.734375 2.054688 11.261719 L 10.011719 3.304688 C 10.273438 3.046875 10.726562 3.046875 10.984375 3.304688 L 18.945312 11.261719 C 19.179688 11.496094 19.488281 11.613281 19.796875 11.613281 C 20.105469 11.613281 20.414062 11.496094 20.648438 11.261719 C 21.117188 10.792969 21.117188 10.03125 20.648438 9.558594 Z M 20.648438 9.558594 "/>
<path style=" stroke:none;fill-rule:nonzero;fill:rgb(0%,0%,0%);fill-opacity:1;" d="M 10.917969 5.589844 C 10.6875 5.359375 10.3125 5.359375 10.082031 5.589844 L 3.082031 12.585938 C 2.972656 12.695312 2.910156 12.847656 2.910156 13.003906 L 2.910156 18.109375 C 2.910156 19.304688 3.878906 20.277344 5.078125 20.277344 L 8.542969 20.277344 L 8.542969 14.910156 L 12.457031 14.910156 L 12.457031 20.277344 L 15.921875 20.277344 C 17.117188 20.277344 18.089844 19.304688 18.089844 18.109375 L 18.089844 13.003906 C 18.089844 12.847656 18.027344 12.695312 17.917969 12.585938 Z M 10.917969 5.589844 "/>
</g>
</svg>
