<?xml version="1.0" encoding="UTF-8"?>
<svg xmlns="http://www.w3.org/2000/svg" xmlns:xlink="http://www.w3.org/1999/xlink" width="21px" height="21px" viewBox="0 0 21 21" version="1.1">
<g id="surface1">
<path style=" stroke:none;fill-rule:nonzero;fill:rgb(0%,0%,0%);fill-opacity:1;" d="M 15.617188 13.441406 L 18.1875 3.378906 L 21 3.378906 L 21 1.796875 L 16.960938 1.796875 L 16.355469 4.167969 L 0 4.15625 L 1.738281 13.441406 Z M 15.949219 5.75 L 14.390625 11.859375 L 3.050781 11.859375 L 1.90625 5.738281 Z M 15.949219 5.75 "/>
<path style=" stroke:none;fill-rule:nonzero;fill:rgb(0%,0%,0%);fill-opacity:1;" d="M 13.453125 19.203125 C 14.847656 19.203125 15.984375 18.070312 15.984375 16.675781 C 15.984375 15.28125 14.847656 14.144531 13.453125 14.144531 L 3.925781 14.144531 C 2.53125 14.144531 1.394531 15.28125 1.394531 16.675781 C 1.394531 18.070312 2.53125 19.203125 3.925781 19.203125 C 5.320312 19.203125 6.453125 18.070312 6.453125 16.675781 C 6.453125 16.339844 6.386719 16.019531 6.269531 15.726562 L 11.109375 15.726562 C 10.988281 16.019531 10.925781 16.339844 10.925781 16.675781 C 10.925781 18.070312 12.058594 19.203125 13.453125 19.203125 Z M 4.871094 16.675781 C 4.871094 17.195312 4.445312 17.621094 3.925781 17.621094 C 3.402344 17.621094 2.976562 17.195312 2.976562 16.675781 C 2.976562 16.152344 3.402344 15.726562 3.925781 15.726562 C 4.445312 15.726562 4.871094 16.152344 4.871094 16.675781 Z M 14.402344 16.675781 C 14.402344 17.195312 13.976562 17.621094 13.453125 17.621094 C 12.929688 17.621094 12.507812 17.195312 12.507812 16.675781 C 12.507812 16.152344 12.929688 15.726562 13.453125 15.726562 C 13.976562 15.726562 14.402344 16.152344 14.402344 16.675781 Z M 14.402344 16.675781 "/>
</g>
</svg>
